{"accessors" : [{"bufferView" : 0, "byteOffset" : 0, "componentType" : 5123, "count" : 2976, "type" : "SCALAR", "max" : [2975], "min" : [0]}, {"bufferView" : 1, "byteOffset" : 0, "componentType" : 5126, "count" : 2976, "type" : "VEC3", "max" : [16.0703125, 7.875, 10], "min" : [-16.0703125, -7.875, -10], "name" : "POSITION"}, {"bufferView" : 1, "byteOffset" : 12, "componentType" : 5126, "count" : 2976, "type" : "VEC3", "max" : [0.9996027946472168, 1.0000044107437134, 0.9998542666435242], "min" : [-0.9978081583976746, -1.0000044107437134, -0.9998964071273804], "name" : "NORMAL"}, {"bufferView" : 1, "byteOffset" : 24, "componentType" : 5126, "count" : 2976, "type" : "VEC2", "max" : [2, 2], "min" : [0, 0], "name" : "TEXCOORD_0"}], "asset" : {"generator" : "Aspose.3D 24.4.1", "version" : "2.0"}, "buffers" : [{"uri" : "data:application/octet-stream;base64,", "byteLength" : 101192}], "bufferViews" : [{"buffer" : 0, "byteOffset" : 0, "byteLength" : 5952, "target" : 34963}, {"buffer" : 0, "byteOffset" : 5956, "byteLength" : 95232, "byteStride" : 32, "target" : 34962}], "materials" : [{"name" : "Default-Teapot01", "pbrMetallicRoughness" : {"baseColorFactor" : [0.6901960784313725, 0.6901960784313725, 0.6901960784313725, 1], "metallicFactor" : 1, "roughnessFactor" : 1}, "emissiveFactor" : [0, 0, 0], "alphaMode" : "OPAQUE", "doubleSided" : false}], "meshes" : [{"primitives" : [{"attributes" : {"POSITION" : 1, "NORMAL" : 2, "TEXCOORD_0" : 3}, "indices" : 0, "material" : 0, "mode" : 4}]}], "nodes" : [{"mesh" : 0, "name" : "Teapot01"}, {"children" : [0], "matrix" : [0.009999999776482582, 0, 0, 0, 0, 0.009999999776482582, 0, 0, 0, 0, 0.009999999776482582, 0, 0, 0, 0, 1], "name" : "UtahTeapot_root"}], "scene" : 0, "scenes" : [{"nodes" : [1]}]}